<svg width="22" height="26" viewBox="0 0 22 26" fill="none" xmlns="http://www.w3.org/2000/svg">
<g clip-path="url(#clip0_601_1449)" filter="url(#filter0_d_601_1449)">
<path d="M10.9614 11.0344C12.02 11.0344 13.0514 10.7087 13.9471 10.1387C14.8428 9.54156 15.5214 8.70013 15.9285 7.72299C16.3357 6.74585 16.4443 5.66013 16.2271 4.62871C16.01 3.59728 15.5214 2.62013 14.7614 1.88728C14.0014 1.12728 13.0514 0.611562 12.02 0.421562C10.9885 0.231562 9.90283 0.285848 8.92569 0.692991C7.94854 1.10013 7.10711 1.77871 6.50997 2.67442C5.91283 3.57013 5.61426 4.60156 5.61426 5.66013C5.61426 7.07156 6.18426 8.45585 7.18854 9.46013C8.19283 10.4644 9.54997 11.0344 10.9885 11.0344H10.9614Z" fill="url(#paint0_linear_601_1449)"/>
<path d="M20.5429 16.6804C19.3214 15.3775 17.8286 14.3461 16.1729 13.6404C14.5171 12.9347 12.7529 12.5547 10.9614 12.5547C9.17 12.5547 7.40571 12.9075 5.75 13.6404C4.09429 14.3461 2.62857 15.3775 1.38 16.6804C1.13571 16.979 1 17.3318 1 17.739V21.7833C1 22.1633 1.16286 22.5704 1.46143 22.8418C1.76 23.1404 2.14 23.3033 2.54714 23.3033H19.4029C19.81 23.3033 20.19 23.1404 20.4886 22.8418C20.7871 22.5433 20.95 22.1633 20.95 21.7561V17.7118C20.95 17.3318 20.8143 16.9518 20.5429 16.6533V16.6804Z" fill="url(#paint1_linear_601_1449)"/>
</g>
<defs>
<filter id="filter0_d_601_1449" x="0" y="0.286133" width="21.9502" height="25.0176" filterUnits="userSpaceOnUse" color-interpolation-filters="sRGB">
<feFlood flood-opacity="0" result="BackgroundImageFix"/>
<feColorMatrix in="SourceAlpha" type="matrix" values="0 0 0 0 0 0 0 0 0 0 0 0 0 0 0 0 0 0 127 0" result="hardAlpha"/>
<feOffset dy="1"/>
<feGaussianBlur stdDeviation="0.5"/>
<feColorMatrix type="matrix" values="0 0 0 0 0.239216 0 0 0 0 0.556863 0 0 0 0 0.811765 0 0 0 0.15 0"/>
<feBlend mode="normal" in2="BackgroundImageFix" result="effect1_dropShadow_601_1449"/>
<feBlend mode="normal" in="SourceGraphic" in2="effect1_dropShadow_601_1449" result="shape"/>
</filter>
<linearGradient id="paint0_linear_601_1449" x1="10.9755" y1="0.316406" x2="10.9755" y2="11.0344" gradientUnits="userSpaceOnUse">
<stop stop-color="#3D8ECF"/>
<stop offset="1" stop-color="#58A6E4"/>
</linearGradient>
<linearGradient id="paint1_linear_601_1449" x1="10.975" y1="12.5547" x2="10.975" y2="23.3033" gradientUnits="userSpaceOnUse">
<stop stop-color="#3D8ECF"/>
<stop offset="1" stop-color="#58A6E4"/>
</linearGradient>
<clipPath id="clip0_601_1449">
<rect width="19.95" height="23.0171" fill="white" transform="translate(1 0.286133)"/>
</clipPath>
</defs>
</svg>
